%TF.GenerationSoftware,KiCad,Pcbnew,8.0.8*%
%TF.CreationDate,2025-02-19T11:23:30-07:00*%
%TF.ProjectId,SparkFun_Audio_Player_Breakout_MY1690X-16S_panelized,53706172-6b46-4756-9e5f-417564696f5f,v10*%
%TF.SameCoordinates,Original*%
%TF.FileFunction,Soldermask,Bot*%
%TF.FilePolarity,Negative*%
%FSLAX46Y46*%
G04 Gerber Fmt 4.6, Leading zero omitted, Abs format (unit mm)*
G04 Created by KiCad (PCBNEW 8.0.8) date 2025-02-19 11:23:30*
%MOMM*%
%LPD*%
G01*
G04 APERTURE LIST*
%TA.AperFunction,Profile*%
%ADD10C,0.100000*%
%TD*%
%ADD11C,0.250000*%
%ADD12C,0.500000*%
G04 APERTURE END LIST*
D10*
X-500000Y-5580000D02*
X-500000Y154900000D01*
X103600000Y-5580000D02*
X-500000Y-5580000D01*
X103600000Y154900000D02*
X103600000Y-5580000D01*
X-500000Y154900000D02*
X103600000Y154900000D01*
X-6850000Y-11930000D02*
X-6850000Y161250000D01*
X109950000Y-11930000D02*
X-6850000Y-11930000D01*
X109950000Y161250000D02*
X109950000Y-11930000D01*
X-6850000Y161250000D02*
X109950000Y161250000D01*
X103100000Y123920000D02*
X103100000Y149320000D01*
X103100000Y92940000D02*
X103100000Y118340000D01*
X103100000Y61960000D02*
X103100000Y87360000D01*
X103100000Y30980000D02*
X103100000Y56380000D01*
X103100000Y0D02*
X103100000Y25400000D01*
X77200000Y123920000D02*
X77200000Y149320000D01*
X77200000Y92940000D02*
X77200000Y118340000D01*
X77200000Y61960000D02*
X77200000Y87360000D01*
X77200000Y30980000D02*
X77200000Y56380000D01*
X77200000Y0D02*
X77200000Y25400000D01*
X51300000Y123920000D02*
X51300000Y149320000D01*
X51300000Y92940000D02*
X51300000Y118340000D01*
X51300000Y61960000D02*
X51300000Y87360000D01*
X51300000Y30980000D02*
X51300000Y56380000D01*
X51300000Y0D02*
X51300000Y25400000D01*
X25400000Y123920000D02*
X25400000Y149320000D01*
X25400000Y92940000D02*
X25400000Y118340000D01*
X25400000Y61960000D02*
X25400000Y87360000D01*
X25400000Y30980000D02*
X25400000Y56380000D01*
X77700000Y123920000D02*
X103100000Y123920000D01*
X77700000Y92940000D02*
X103100000Y92940000D01*
X77700000Y61960000D02*
X103100000Y61960000D01*
X77700000Y30980000D02*
X103100000Y30980000D01*
X77700000Y0D02*
X103100000Y0D01*
X51800000Y123920000D02*
X77200000Y123920000D01*
X51800000Y92940000D02*
X77200000Y92940000D01*
X51800000Y61960000D02*
X77200000Y61960000D01*
X51800000Y30980000D02*
X77200000Y30980000D01*
X51800000Y0D02*
X77200000Y0D01*
X25900000Y123920000D02*
X51300000Y123920000D01*
X25900000Y92940000D02*
X51300000Y92940000D01*
X25900000Y61960000D02*
X51300000Y61960000D01*
X25900000Y30980000D02*
X51300000Y30980000D01*
X25900000Y0D02*
X51300000Y0D01*
X0Y123920000D02*
X25400000Y123920000D01*
X0Y92940000D02*
X25400000Y92940000D01*
X0Y61960000D02*
X25400000Y61960000D01*
X0Y30980000D02*
X25400000Y30980000D01*
X103100000Y149320000D02*
X77700000Y149320000D01*
X103100000Y118340000D02*
X77700000Y118340000D01*
X103100000Y87360000D02*
X77700000Y87360000D01*
X103100000Y56380000D02*
X77700000Y56380000D01*
X103100000Y25400000D02*
X77700000Y25400000D01*
X77200000Y149320000D02*
X51800000Y149320000D01*
X77200000Y118340000D02*
X51800000Y118340000D01*
X77200000Y87360000D02*
X51800000Y87360000D01*
X77200000Y56380000D02*
X51800000Y56380000D01*
X77200000Y25400000D02*
X51800000Y25400000D01*
X51300000Y149320000D02*
X25900000Y149320000D01*
X51300000Y118340000D02*
X25900000Y118340000D01*
X51300000Y87360000D02*
X25900000Y87360000D01*
X51300000Y56380000D02*
X25900000Y56380000D01*
X51300000Y25400000D02*
X25900000Y25400000D01*
X25400000Y149320000D02*
X0Y149320000D01*
X25400000Y118340000D02*
X0Y118340000D01*
X25400000Y87360000D02*
X0Y87360000D01*
X25400000Y56380000D02*
X0Y56380000D01*
X77700000Y149320000D02*
X77700000Y123920000D01*
X77700000Y118340000D02*
X77700000Y92940000D01*
X77700000Y87360000D02*
X77700000Y61960000D01*
X77700000Y56380000D02*
X77700000Y30980000D01*
X77700000Y25400000D02*
X77700000Y0D01*
X51800000Y149320000D02*
X51800000Y123920000D01*
X51800000Y118340000D02*
X51800000Y92940000D01*
X51800000Y87360000D02*
X51800000Y61960000D01*
X51800000Y56380000D02*
X51800000Y30980000D01*
X51800000Y25400000D02*
X51800000Y0D01*
X25900000Y149320000D02*
X25900000Y123920000D01*
X25900000Y118340000D02*
X25900000Y92940000D01*
X25900000Y87360000D02*
X25900000Y61960000D01*
X25900000Y56380000D02*
X25900000Y30980000D01*
X25900000Y25400000D02*
X25900000Y0D01*
X0Y149320000D02*
X0Y123920000D01*
X0Y118340000D02*
X0Y92940000D01*
X0Y87360000D02*
X0Y61960000D01*
X0Y56380000D02*
X0Y30980000D01*
X0Y25400000D02*
X0Y0D01*
X25400000Y25400000D02*
X0Y25400000D01*
X0Y0D02*
X25400000Y0D01*
X25400000Y0D02*
X25400000Y25400000D01*
D11*
X44788094Y-3702238D02*
X44121427Y-2749857D01*
X43645237Y-3702238D02*
X43645237Y-1702238D01*
X43645237Y-1702238D02*
X44407142Y-1702238D01*
X44407142Y-1702238D02*
X44597618Y-1797476D01*
X44597618Y-1797476D02*
X44692856Y-1892714D01*
X44692856Y-1892714D02*
X44788094Y-2083190D01*
X44788094Y-2083190D02*
X44788094Y-2368904D01*
X44788094Y-2368904D02*
X44692856Y-2559380D01*
X44692856Y-2559380D02*
X44597618Y-2654619D01*
X44597618Y-2654619D02*
X44407142Y-2749857D01*
X44407142Y-2749857D02*
X43645237Y-2749857D01*
X46026189Y-1702238D02*
X46407142Y-1702238D01*
X46407142Y-1702238D02*
X46597618Y-1797476D01*
X46597618Y-1797476D02*
X46788094Y-1987952D01*
X46788094Y-1987952D02*
X46883332Y-2368904D01*
X46883332Y-2368904D02*
X46883332Y-3035571D01*
X46883332Y-3035571D02*
X46788094Y-3416523D01*
X46788094Y-3416523D02*
X46597618Y-3607000D01*
X46597618Y-3607000D02*
X46407142Y-3702238D01*
X46407142Y-3702238D02*
X46026189Y-3702238D01*
X46026189Y-3702238D02*
X45835713Y-3607000D01*
X45835713Y-3607000D02*
X45645237Y-3416523D01*
X45645237Y-3416523D02*
X45549999Y-3035571D01*
X45549999Y-3035571D02*
X45549999Y-2368904D01*
X45549999Y-2368904D02*
X45645237Y-1987952D01*
X45645237Y-1987952D02*
X45835713Y-1797476D01*
X45835713Y-1797476D02*
X46026189Y-1702238D01*
X47740475Y-1702238D02*
X47740475Y-3321285D01*
X47740475Y-3321285D02*
X47835713Y-3511761D01*
X47835713Y-3511761D02*
X47930951Y-3607000D01*
X47930951Y-3607000D02*
X48121427Y-3702238D01*
X48121427Y-3702238D02*
X48502380Y-3702238D01*
X48502380Y-3702238D02*
X48692856Y-3607000D01*
X48692856Y-3607000D02*
X48788094Y-3511761D01*
X48788094Y-3511761D02*
X48883332Y-3321285D01*
X48883332Y-3321285D02*
X48883332Y-1702238D01*
X49549999Y-1702238D02*
X50692856Y-1702238D01*
X50121427Y-3702238D02*
X50121427Y-1702238D01*
X51359523Y-2654619D02*
X52026190Y-2654619D01*
X52311904Y-3702238D02*
X51359523Y-3702238D01*
X51359523Y-3702238D02*
X51359523Y-1702238D01*
X51359523Y-1702238D02*
X52311904Y-1702238D01*
X55073809Y-1702238D02*
X55454762Y-1702238D01*
X55454762Y-1702238D02*
X55645238Y-1797476D01*
X55645238Y-1797476D02*
X55835714Y-1987952D01*
X55835714Y-1987952D02*
X55930952Y-2368904D01*
X55930952Y-2368904D02*
X55930952Y-3035571D01*
X55930952Y-3035571D02*
X55835714Y-3416523D01*
X55835714Y-3416523D02*
X55645238Y-3607000D01*
X55645238Y-3607000D02*
X55454762Y-3702238D01*
X55454762Y-3702238D02*
X55073809Y-3702238D01*
X55073809Y-3702238D02*
X54883333Y-3607000D01*
X54883333Y-3607000D02*
X54692857Y-3416523D01*
X54692857Y-3416523D02*
X54597619Y-3035571D01*
X54597619Y-3035571D02*
X54597619Y-2368904D01*
X54597619Y-2368904D02*
X54692857Y-1987952D01*
X54692857Y-1987952D02*
X54883333Y-1797476D01*
X54883333Y-1797476D02*
X55073809Y-1702238D01*
X56788095Y-1702238D02*
X56788095Y-3321285D01*
X56788095Y-3321285D02*
X56883333Y-3511761D01*
X56883333Y-3511761D02*
X56978571Y-3607000D01*
X56978571Y-3607000D02*
X57169047Y-3702238D01*
X57169047Y-3702238D02*
X57550000Y-3702238D01*
X57550000Y-3702238D02*
X57740476Y-3607000D01*
X57740476Y-3607000D02*
X57835714Y-3511761D01*
X57835714Y-3511761D02*
X57930952Y-3321285D01*
X57930952Y-3321285D02*
X57930952Y-1702238D01*
X58597619Y-1702238D02*
X59740476Y-1702238D01*
X59169047Y-3702238D02*
X59169047Y-1702238D01*
X44788094Y27277762D02*
X44121427Y28230143D01*
X43645237Y27277762D02*
X43645237Y29277762D01*
X43645237Y29277762D02*
X44407142Y29277762D01*
X44407142Y29277762D02*
X44597618Y29182524D01*
X44597618Y29182524D02*
X44692856Y29087286D01*
X44692856Y29087286D02*
X44788094Y28896810D01*
X44788094Y28896810D02*
X44788094Y28611096D01*
X44788094Y28611096D02*
X44692856Y28420620D01*
X44692856Y28420620D02*
X44597618Y28325381D01*
X44597618Y28325381D02*
X44407142Y28230143D01*
X44407142Y28230143D02*
X43645237Y28230143D01*
X46026189Y29277762D02*
X46407142Y29277762D01*
X46407142Y29277762D02*
X46597618Y29182524D01*
X46597618Y29182524D02*
X46788094Y28992048D01*
X46788094Y28992048D02*
X46883332Y28611096D01*
X46883332Y28611096D02*
X46883332Y27944429D01*
X46883332Y27944429D02*
X46788094Y27563477D01*
X46788094Y27563477D02*
X46597618Y27373000D01*
X46597618Y27373000D02*
X46407142Y27277762D01*
X46407142Y27277762D02*
X46026189Y27277762D01*
X46026189Y27277762D02*
X45835713Y27373000D01*
X45835713Y27373000D02*
X45645237Y27563477D01*
X45645237Y27563477D02*
X45549999Y27944429D01*
X45549999Y27944429D02*
X45549999Y28611096D01*
X45549999Y28611096D02*
X45645237Y28992048D01*
X45645237Y28992048D02*
X45835713Y29182524D01*
X45835713Y29182524D02*
X46026189Y29277762D01*
X47740475Y29277762D02*
X47740475Y27658715D01*
X47740475Y27658715D02*
X47835713Y27468239D01*
X47835713Y27468239D02*
X47930951Y27373000D01*
X47930951Y27373000D02*
X48121427Y27277762D01*
X48121427Y27277762D02*
X48502380Y27277762D01*
X48502380Y27277762D02*
X48692856Y27373000D01*
X48692856Y27373000D02*
X48788094Y27468239D01*
X48788094Y27468239D02*
X48883332Y27658715D01*
X48883332Y27658715D02*
X48883332Y29277762D01*
X49549999Y29277762D02*
X50692856Y29277762D01*
X50121427Y27277762D02*
X50121427Y29277762D01*
X51359523Y28325381D02*
X52026190Y28325381D01*
X52311904Y27277762D02*
X51359523Y27277762D01*
X51359523Y27277762D02*
X51359523Y29277762D01*
X51359523Y29277762D02*
X52311904Y29277762D01*
X55073809Y29277762D02*
X55454762Y29277762D01*
X55454762Y29277762D02*
X55645238Y29182524D01*
X55645238Y29182524D02*
X55835714Y28992048D01*
X55835714Y28992048D02*
X55930952Y28611096D01*
X55930952Y28611096D02*
X55930952Y27944429D01*
X55930952Y27944429D02*
X55835714Y27563477D01*
X55835714Y27563477D02*
X55645238Y27373000D01*
X55645238Y27373000D02*
X55454762Y27277762D01*
X55454762Y27277762D02*
X55073809Y27277762D01*
X55073809Y27277762D02*
X54883333Y27373000D01*
X54883333Y27373000D02*
X54692857Y27563477D01*
X54692857Y27563477D02*
X54597619Y27944429D01*
X54597619Y27944429D02*
X54597619Y28611096D01*
X54597619Y28611096D02*
X54692857Y28992048D01*
X54692857Y28992048D02*
X54883333Y29182524D01*
X54883333Y29182524D02*
X55073809Y29277762D01*
X56788095Y29277762D02*
X56788095Y27658715D01*
X56788095Y27658715D02*
X56883333Y27468239D01*
X56883333Y27468239D02*
X56978571Y27373000D01*
X56978571Y27373000D02*
X57169047Y27277762D01*
X57169047Y27277762D02*
X57550000Y27277762D01*
X57550000Y27277762D02*
X57740476Y27373000D01*
X57740476Y27373000D02*
X57835714Y27468239D01*
X57835714Y27468239D02*
X57930952Y27658715D01*
X57930952Y27658715D02*
X57930952Y29277762D01*
X58597619Y29277762D02*
X59740476Y29277762D01*
X59169047Y27277762D02*
X59169047Y29277762D01*
X44788094Y58257762D02*
X44121427Y59210143D01*
X43645237Y58257762D02*
X43645237Y60257762D01*
X43645237Y60257762D02*
X44407142Y60257762D01*
X44407142Y60257762D02*
X44597618Y60162524D01*
X44597618Y60162524D02*
X44692856Y60067286D01*
X44692856Y60067286D02*
X44788094Y59876810D01*
X44788094Y59876810D02*
X44788094Y59591096D01*
X44788094Y59591096D02*
X44692856Y59400620D01*
X44692856Y59400620D02*
X44597618Y59305381D01*
X44597618Y59305381D02*
X44407142Y59210143D01*
X44407142Y59210143D02*
X43645237Y59210143D01*
X46026189Y60257762D02*
X46407142Y60257762D01*
X46407142Y60257762D02*
X46597618Y60162524D01*
X46597618Y60162524D02*
X46788094Y59972048D01*
X46788094Y59972048D02*
X46883332Y59591096D01*
X46883332Y59591096D02*
X46883332Y58924429D01*
X46883332Y58924429D02*
X46788094Y58543477D01*
X46788094Y58543477D02*
X46597618Y58353000D01*
X46597618Y58353000D02*
X46407142Y58257762D01*
X46407142Y58257762D02*
X46026189Y58257762D01*
X46026189Y58257762D02*
X45835713Y58353000D01*
X45835713Y58353000D02*
X45645237Y58543477D01*
X45645237Y58543477D02*
X45549999Y58924429D01*
X45549999Y58924429D02*
X45549999Y59591096D01*
X45549999Y59591096D02*
X45645237Y59972048D01*
X45645237Y59972048D02*
X45835713Y60162524D01*
X45835713Y60162524D02*
X46026189Y60257762D01*
X47740475Y60257762D02*
X47740475Y58638715D01*
X47740475Y58638715D02*
X47835713Y58448239D01*
X47835713Y58448239D02*
X47930951Y58353000D01*
X47930951Y58353000D02*
X48121427Y58257762D01*
X48121427Y58257762D02*
X48502380Y58257762D01*
X48502380Y58257762D02*
X48692856Y58353000D01*
X48692856Y58353000D02*
X48788094Y58448239D01*
X48788094Y58448239D02*
X48883332Y58638715D01*
X48883332Y58638715D02*
X48883332Y60257762D01*
X49549999Y60257762D02*
X50692856Y60257762D01*
X50121427Y58257762D02*
X50121427Y60257762D01*
X51359523Y59305381D02*
X52026190Y59305381D01*
X52311904Y58257762D02*
X51359523Y58257762D01*
X51359523Y58257762D02*
X51359523Y60257762D01*
X51359523Y60257762D02*
X52311904Y60257762D01*
X55073809Y60257762D02*
X55454762Y60257762D01*
X55454762Y60257762D02*
X55645238Y60162524D01*
X55645238Y60162524D02*
X55835714Y59972048D01*
X55835714Y59972048D02*
X55930952Y59591096D01*
X55930952Y59591096D02*
X55930952Y58924429D01*
X55930952Y58924429D02*
X55835714Y58543477D01*
X55835714Y58543477D02*
X55645238Y58353000D01*
X55645238Y58353000D02*
X55454762Y58257762D01*
X55454762Y58257762D02*
X55073809Y58257762D01*
X55073809Y58257762D02*
X54883333Y58353000D01*
X54883333Y58353000D02*
X54692857Y58543477D01*
X54692857Y58543477D02*
X54597619Y58924429D01*
X54597619Y58924429D02*
X54597619Y59591096D01*
X54597619Y59591096D02*
X54692857Y59972048D01*
X54692857Y59972048D02*
X54883333Y60162524D01*
X54883333Y60162524D02*
X55073809Y60257762D01*
X56788095Y60257762D02*
X56788095Y58638715D01*
X56788095Y58638715D02*
X56883333Y58448239D01*
X56883333Y58448239D02*
X56978571Y58353000D01*
X56978571Y58353000D02*
X57169047Y58257762D01*
X57169047Y58257762D02*
X57550000Y58257762D01*
X57550000Y58257762D02*
X57740476Y58353000D01*
X57740476Y58353000D02*
X57835714Y58448239D01*
X57835714Y58448239D02*
X57930952Y58638715D01*
X57930952Y58638715D02*
X57930952Y60257762D01*
X58597619Y60257762D02*
X59740476Y60257762D01*
X59169047Y58257762D02*
X59169047Y60257762D01*
X44788094Y89237762D02*
X44121427Y90190143D01*
X43645237Y89237762D02*
X43645237Y91237762D01*
X43645237Y91237762D02*
X44407142Y91237762D01*
X44407142Y91237762D02*
X44597618Y91142524D01*
X44597618Y91142524D02*
X44692856Y91047286D01*
X44692856Y91047286D02*
X44788094Y90856810D01*
X44788094Y90856810D02*
X44788094Y90571096D01*
X44788094Y90571096D02*
X44692856Y90380620D01*
X44692856Y90380620D02*
X44597618Y90285381D01*
X44597618Y90285381D02*
X44407142Y90190143D01*
X44407142Y90190143D02*
X43645237Y90190143D01*
X46026189Y91237762D02*
X46407142Y91237762D01*
X46407142Y91237762D02*
X46597618Y91142524D01*
X46597618Y91142524D02*
X46788094Y90952048D01*
X46788094Y90952048D02*
X46883332Y90571096D01*
X46883332Y90571096D02*
X46883332Y89904429D01*
X46883332Y89904429D02*
X46788094Y89523477D01*
X46788094Y89523477D02*
X46597618Y89333000D01*
X46597618Y89333000D02*
X46407142Y89237762D01*
X46407142Y89237762D02*
X46026189Y89237762D01*
X46026189Y89237762D02*
X45835713Y89333000D01*
X45835713Y89333000D02*
X45645237Y89523477D01*
X45645237Y89523477D02*
X45549999Y89904429D01*
X45549999Y89904429D02*
X45549999Y90571096D01*
X45549999Y90571096D02*
X45645237Y90952048D01*
X45645237Y90952048D02*
X45835713Y91142524D01*
X45835713Y91142524D02*
X46026189Y91237762D01*
X47740475Y91237762D02*
X47740475Y89618715D01*
X47740475Y89618715D02*
X47835713Y89428239D01*
X47835713Y89428239D02*
X47930951Y89333000D01*
X47930951Y89333000D02*
X48121427Y89237762D01*
X48121427Y89237762D02*
X48502380Y89237762D01*
X48502380Y89237762D02*
X48692856Y89333000D01*
X48692856Y89333000D02*
X48788094Y89428239D01*
X48788094Y89428239D02*
X48883332Y89618715D01*
X48883332Y89618715D02*
X48883332Y91237762D01*
X49549999Y91237762D02*
X50692856Y91237762D01*
X50121427Y89237762D02*
X50121427Y91237762D01*
X51359523Y90285381D02*
X52026190Y90285381D01*
X52311904Y89237762D02*
X51359523Y89237762D01*
X51359523Y89237762D02*
X51359523Y91237762D01*
X51359523Y91237762D02*
X52311904Y91237762D01*
X55073809Y91237762D02*
X55454762Y91237762D01*
X55454762Y91237762D02*
X55645238Y91142524D01*
X55645238Y91142524D02*
X55835714Y90952048D01*
X55835714Y90952048D02*
X55930952Y90571096D01*
X55930952Y90571096D02*
X55930952Y89904429D01*
X55930952Y89904429D02*
X55835714Y89523477D01*
X55835714Y89523477D02*
X55645238Y89333000D01*
X55645238Y89333000D02*
X55454762Y89237762D01*
X55454762Y89237762D02*
X55073809Y89237762D01*
X55073809Y89237762D02*
X54883333Y89333000D01*
X54883333Y89333000D02*
X54692857Y89523477D01*
X54692857Y89523477D02*
X54597619Y89904429D01*
X54597619Y89904429D02*
X54597619Y90571096D01*
X54597619Y90571096D02*
X54692857Y90952048D01*
X54692857Y90952048D02*
X54883333Y91142524D01*
X54883333Y91142524D02*
X55073809Y91237762D01*
X56788095Y91237762D02*
X56788095Y89618715D01*
X56788095Y89618715D02*
X56883333Y89428239D01*
X56883333Y89428239D02*
X56978571Y89333000D01*
X56978571Y89333000D02*
X57169047Y89237762D01*
X57169047Y89237762D02*
X57550000Y89237762D01*
X57550000Y89237762D02*
X57740476Y89333000D01*
X57740476Y89333000D02*
X57835714Y89428239D01*
X57835714Y89428239D02*
X57930952Y89618715D01*
X57930952Y89618715D02*
X57930952Y91237762D01*
X58597619Y91237762D02*
X59740476Y91237762D01*
X59169047Y89237762D02*
X59169047Y91237762D01*
X44788094Y120217761D02*
X44121427Y121170142D01*
X43645237Y120217761D02*
X43645237Y122217761D01*
X43645237Y122217761D02*
X44407142Y122217761D01*
X44407142Y122217761D02*
X44597618Y122122523D01*
X44597618Y122122523D02*
X44692856Y122027285D01*
X44692856Y122027285D02*
X44788094Y121836809D01*
X44788094Y121836809D02*
X44788094Y121551095D01*
X44788094Y121551095D02*
X44692856Y121360619D01*
X44692856Y121360619D02*
X44597618Y121265380D01*
X44597618Y121265380D02*
X44407142Y121170142D01*
X44407142Y121170142D02*
X43645237Y121170142D01*
X46026189Y122217761D02*
X46407142Y122217761D01*
X46407142Y122217761D02*
X46597618Y122122523D01*
X46597618Y122122523D02*
X46788094Y121932047D01*
X46788094Y121932047D02*
X46883332Y121551095D01*
X46883332Y121551095D02*
X46883332Y120884428D01*
X46883332Y120884428D02*
X46788094Y120503476D01*
X46788094Y120503476D02*
X46597618Y120313000D01*
X46597618Y120313000D02*
X46407142Y120217761D01*
X46407142Y120217761D02*
X46026189Y120217761D01*
X46026189Y120217761D02*
X45835713Y120313000D01*
X45835713Y120313000D02*
X45645237Y120503476D01*
X45645237Y120503476D02*
X45549999Y120884428D01*
X45549999Y120884428D02*
X45549999Y121551095D01*
X45549999Y121551095D02*
X45645237Y121932047D01*
X45645237Y121932047D02*
X45835713Y122122523D01*
X45835713Y122122523D02*
X46026189Y122217761D01*
X47740475Y122217761D02*
X47740475Y120598714D01*
X47740475Y120598714D02*
X47835713Y120408238D01*
X47835713Y120408238D02*
X47930951Y120313000D01*
X47930951Y120313000D02*
X48121427Y120217761D01*
X48121427Y120217761D02*
X48502380Y120217761D01*
X48502380Y120217761D02*
X48692856Y120313000D01*
X48692856Y120313000D02*
X48788094Y120408238D01*
X48788094Y120408238D02*
X48883332Y120598714D01*
X48883332Y120598714D02*
X48883332Y122217761D01*
X49549999Y122217761D02*
X50692856Y122217761D01*
X50121427Y120217761D02*
X50121427Y122217761D01*
X51359523Y121265380D02*
X52026190Y121265380D01*
X52311904Y120217761D02*
X51359523Y120217761D01*
X51359523Y120217761D02*
X51359523Y122217761D01*
X51359523Y122217761D02*
X52311904Y122217761D01*
X55073809Y122217761D02*
X55454762Y122217761D01*
X55454762Y122217761D02*
X55645238Y122122523D01*
X55645238Y122122523D02*
X55835714Y121932047D01*
X55835714Y121932047D02*
X55930952Y121551095D01*
X55930952Y121551095D02*
X55930952Y120884428D01*
X55930952Y120884428D02*
X55835714Y120503476D01*
X55835714Y120503476D02*
X55645238Y120313000D01*
X55645238Y120313000D02*
X55454762Y120217761D01*
X55454762Y120217761D02*
X55073809Y120217761D01*
X55073809Y120217761D02*
X54883333Y120313000D01*
X54883333Y120313000D02*
X54692857Y120503476D01*
X54692857Y120503476D02*
X54597619Y120884428D01*
X54597619Y120884428D02*
X54597619Y121551095D01*
X54597619Y121551095D02*
X54692857Y121932047D01*
X54692857Y121932047D02*
X54883333Y122122523D01*
X54883333Y122122523D02*
X55073809Y122217761D01*
X56788095Y122217761D02*
X56788095Y120598714D01*
X56788095Y120598714D02*
X56883333Y120408238D01*
X56883333Y120408238D02*
X56978571Y120313000D01*
X56978571Y120313000D02*
X57169047Y120217761D01*
X57169047Y120217761D02*
X57550000Y120217761D01*
X57550000Y120217761D02*
X57740476Y120313000D01*
X57740476Y120313000D02*
X57835714Y120408238D01*
X57835714Y120408238D02*
X57930952Y120598714D01*
X57930952Y120598714D02*
X57930952Y122217761D01*
X58597619Y122217761D02*
X59740476Y122217761D01*
X59169047Y120217761D02*
X59169047Y122217761D01*
X44788094Y151197761D02*
X44121427Y152150142D01*
X43645237Y151197761D02*
X43645237Y153197761D01*
X43645237Y153197761D02*
X44407142Y153197761D01*
X44407142Y153197761D02*
X44597618Y153102523D01*
X44597618Y153102523D02*
X44692856Y153007285D01*
X44692856Y153007285D02*
X44788094Y152816809D01*
X44788094Y152816809D02*
X44788094Y152531095D01*
X44788094Y152531095D02*
X44692856Y152340619D01*
X44692856Y152340619D02*
X44597618Y152245380D01*
X44597618Y152245380D02*
X44407142Y152150142D01*
X44407142Y152150142D02*
X43645237Y152150142D01*
X46026189Y153197761D02*
X46407142Y153197761D01*
X46407142Y153197761D02*
X46597618Y153102523D01*
X46597618Y153102523D02*
X46788094Y152912047D01*
X46788094Y152912047D02*
X46883332Y152531095D01*
X46883332Y152531095D02*
X46883332Y151864428D01*
X46883332Y151864428D02*
X46788094Y151483476D01*
X46788094Y151483476D02*
X46597618Y151293000D01*
X46597618Y151293000D02*
X46407142Y151197761D01*
X46407142Y151197761D02*
X46026189Y151197761D01*
X46026189Y151197761D02*
X45835713Y151293000D01*
X45835713Y151293000D02*
X45645237Y151483476D01*
X45645237Y151483476D02*
X45549999Y151864428D01*
X45549999Y151864428D02*
X45549999Y152531095D01*
X45549999Y152531095D02*
X45645237Y152912047D01*
X45645237Y152912047D02*
X45835713Y153102523D01*
X45835713Y153102523D02*
X46026189Y153197761D01*
X47740475Y153197761D02*
X47740475Y151578714D01*
X47740475Y151578714D02*
X47835713Y151388238D01*
X47835713Y151388238D02*
X47930951Y151293000D01*
X47930951Y151293000D02*
X48121427Y151197761D01*
X48121427Y151197761D02*
X48502380Y151197761D01*
X48502380Y151197761D02*
X48692856Y151293000D01*
X48692856Y151293000D02*
X48788094Y151388238D01*
X48788094Y151388238D02*
X48883332Y151578714D01*
X48883332Y151578714D02*
X48883332Y153197761D01*
X49549999Y153197761D02*
X50692856Y153197761D01*
X50121427Y151197761D02*
X50121427Y153197761D01*
X51359523Y152245380D02*
X52026190Y152245380D01*
X52311904Y151197761D02*
X51359523Y151197761D01*
X51359523Y151197761D02*
X51359523Y153197761D01*
X51359523Y153197761D02*
X52311904Y153197761D01*
X55073809Y153197761D02*
X55454762Y153197761D01*
X55454762Y153197761D02*
X55645238Y153102523D01*
X55645238Y153102523D02*
X55835714Y152912047D01*
X55835714Y152912047D02*
X55930952Y152531095D01*
X55930952Y152531095D02*
X55930952Y151864428D01*
X55930952Y151864428D02*
X55835714Y151483476D01*
X55835714Y151483476D02*
X55645238Y151293000D01*
X55645238Y151293000D02*
X55454762Y151197761D01*
X55454762Y151197761D02*
X55073809Y151197761D01*
X55073809Y151197761D02*
X54883333Y151293000D01*
X54883333Y151293000D02*
X54692857Y151483476D01*
X54692857Y151483476D02*
X54597619Y151864428D01*
X54597619Y151864428D02*
X54597619Y152531095D01*
X54597619Y152531095D02*
X54692857Y152912047D01*
X54692857Y152912047D02*
X54883333Y153102523D01*
X54883333Y153102523D02*
X55073809Y153197761D01*
X56788095Y153197761D02*
X56788095Y151578714D01*
X56788095Y151578714D02*
X56883333Y151388238D01*
X56883333Y151388238D02*
X56978571Y151293000D01*
X56978571Y151293000D02*
X57169047Y151197761D01*
X57169047Y151197761D02*
X57550000Y151197761D01*
X57550000Y151197761D02*
X57740476Y151293000D01*
X57740476Y151293000D02*
X57835714Y151388238D01*
X57835714Y151388238D02*
X57930952Y151578714D01*
X57930952Y151578714D02*
X57930952Y153197761D01*
X58597619Y153197761D02*
X59740476Y153197761D01*
X59169047Y151197761D02*
X59169047Y153197761D01*
X102262238Y163854949D02*
X104262238Y164521615D01*
X104262238Y164521615D02*
X102262238Y165188282D01*
X103500333Y165854949D02*
X103500333Y167378759D01*
X104167000Y168235901D02*
X104262238Y168521615D01*
X104262238Y168521615D02*
X104262238Y168997806D01*
X104262238Y168997806D02*
X104167000Y169188282D01*
X104167000Y169188282D02*
X104071761Y169283520D01*
X104071761Y169283520D02*
X103881285Y169378758D01*
X103881285Y169378758D02*
X103690809Y169378758D01*
X103690809Y169378758D02*
X103500333Y169283520D01*
X103500333Y169283520D02*
X103405095Y169188282D01*
X103405095Y169188282D02*
X103309857Y168997806D01*
X103309857Y168997806D02*
X103214619Y168616853D01*
X103214619Y168616853D02*
X103119380Y168426377D01*
X103119380Y168426377D02*
X103024142Y168331139D01*
X103024142Y168331139D02*
X102833666Y168235901D01*
X102833666Y168235901D02*
X102643190Y168235901D01*
X102643190Y168235901D02*
X102452714Y168331139D01*
X102452714Y168331139D02*
X102357476Y168426377D01*
X102357476Y168426377D02*
X102262238Y168616853D01*
X102262238Y168616853D02*
X102262238Y169093044D01*
X102262238Y169093044D02*
X102357476Y169378758D01*
X104071761Y171378758D02*
X104167000Y171283520D01*
X104167000Y171283520D02*
X104262238Y170997806D01*
X104262238Y170997806D02*
X104262238Y170807330D01*
X104262238Y170807330D02*
X104167000Y170521615D01*
X104167000Y170521615D02*
X103976523Y170331139D01*
X103976523Y170331139D02*
X103786047Y170235901D01*
X103786047Y170235901D02*
X103405095Y170140663D01*
X103405095Y170140663D02*
X103119380Y170140663D01*
X103119380Y170140663D02*
X102738428Y170235901D01*
X102738428Y170235901D02*
X102547952Y170331139D01*
X102547952Y170331139D02*
X102357476Y170521615D01*
X102357476Y170521615D02*
X102262238Y170807330D01*
X102262238Y170807330D02*
X102262238Y170997806D01*
X102262238Y170997806D02*
X102357476Y171283520D01*
X102357476Y171283520D02*
X102452714Y171378758D01*
X102262238Y172616853D02*
X102262238Y172997806D01*
X102262238Y172997806D02*
X102357476Y173188282D01*
X102357476Y173188282D02*
X102547952Y173378758D01*
X102547952Y173378758D02*
X102928904Y173473996D01*
X102928904Y173473996D02*
X103595571Y173473996D01*
X103595571Y173473996D02*
X103976523Y173378758D01*
X103976523Y173378758D02*
X104167000Y173188282D01*
X104167000Y173188282D02*
X104262238Y172997806D01*
X104262238Y172997806D02*
X104262238Y172616853D01*
X104262238Y172616853D02*
X104167000Y172426377D01*
X104167000Y172426377D02*
X103976523Y172235901D01*
X103976523Y172235901D02*
X103595571Y172140663D01*
X103595571Y172140663D02*
X102928904Y172140663D01*
X102928904Y172140663D02*
X102547952Y172235901D01*
X102547952Y172235901D02*
X102357476Y172426377D01*
X102357476Y172426377D02*
X102262238Y172616853D01*
X104262238Y175473996D02*
X103309857Y174807329D01*
X104262238Y174331139D02*
X102262238Y174331139D01*
X102262238Y174331139D02*
X102262238Y175093044D01*
X102262238Y175093044D02*
X102357476Y175283520D01*
X102357476Y175283520D02*
X102452714Y175378758D01*
X102452714Y175378758D02*
X102643190Y175473996D01*
X102643190Y175473996D02*
X102928904Y175473996D01*
X102928904Y175473996D02*
X103119380Y175378758D01*
X103119380Y175378758D02*
X103214619Y175283520D01*
X103214619Y175283520D02*
X103309857Y175093044D01*
X103309857Y175093044D02*
X103309857Y174331139D01*
X103214619Y176331139D02*
X103214619Y176997806D01*
X104262238Y177283520D02*
X104262238Y176331139D01*
X104262238Y176331139D02*
X102262238Y176331139D01*
X102262238Y176331139D02*
X102262238Y177283520D01*
D12*
X103350000Y161500000D02*
X103350000Y-12180000D01*
D11*
X76362238Y163854949D02*
X78362238Y164521615D01*
X78362238Y164521615D02*
X76362238Y165188282D01*
X77600333Y165854949D02*
X77600333Y167378759D01*
X78267000Y168235901D02*
X78362238Y168521615D01*
X78362238Y168521615D02*
X78362238Y168997806D01*
X78362238Y168997806D02*
X78267000Y169188282D01*
X78267000Y169188282D02*
X78171761Y169283520D01*
X78171761Y169283520D02*
X77981285Y169378758D01*
X77981285Y169378758D02*
X77790809Y169378758D01*
X77790809Y169378758D02*
X77600333Y169283520D01*
X77600333Y169283520D02*
X77505095Y169188282D01*
X77505095Y169188282D02*
X77409857Y168997806D01*
X77409857Y168997806D02*
X77314619Y168616853D01*
X77314619Y168616853D02*
X77219380Y168426377D01*
X77219380Y168426377D02*
X77124142Y168331139D01*
X77124142Y168331139D02*
X76933666Y168235901D01*
X76933666Y168235901D02*
X76743190Y168235901D01*
X76743190Y168235901D02*
X76552714Y168331139D01*
X76552714Y168331139D02*
X76457476Y168426377D01*
X76457476Y168426377D02*
X76362238Y168616853D01*
X76362238Y168616853D02*
X76362238Y169093044D01*
X76362238Y169093044D02*
X76457476Y169378758D01*
X78171761Y171378758D02*
X78267000Y171283520D01*
X78267000Y171283520D02*
X78362238Y170997806D01*
X78362238Y170997806D02*
X78362238Y170807330D01*
X78362238Y170807330D02*
X78267000Y170521615D01*
X78267000Y170521615D02*
X78076523Y170331139D01*
X78076523Y170331139D02*
X77886047Y170235901D01*
X77886047Y170235901D02*
X77505095Y170140663D01*
X77505095Y170140663D02*
X77219380Y170140663D01*
X77219380Y170140663D02*
X76838428Y170235901D01*
X76838428Y170235901D02*
X76647952Y170331139D01*
X76647952Y170331139D02*
X76457476Y170521615D01*
X76457476Y170521615D02*
X76362238Y170807330D01*
X76362238Y170807330D02*
X76362238Y170997806D01*
X76362238Y170997806D02*
X76457476Y171283520D01*
X76457476Y171283520D02*
X76552714Y171378758D01*
X76362238Y172616853D02*
X76362238Y172997806D01*
X76362238Y172997806D02*
X76457476Y173188282D01*
X76457476Y173188282D02*
X76647952Y173378758D01*
X76647952Y173378758D02*
X77028904Y173473996D01*
X77028904Y173473996D02*
X77695571Y173473996D01*
X77695571Y173473996D02*
X78076523Y173378758D01*
X78076523Y173378758D02*
X78267000Y173188282D01*
X78267000Y173188282D02*
X78362238Y172997806D01*
X78362238Y172997806D02*
X78362238Y172616853D01*
X78362238Y172616853D02*
X78267000Y172426377D01*
X78267000Y172426377D02*
X78076523Y172235901D01*
X78076523Y172235901D02*
X77695571Y172140663D01*
X77695571Y172140663D02*
X77028904Y172140663D01*
X77028904Y172140663D02*
X76647952Y172235901D01*
X76647952Y172235901D02*
X76457476Y172426377D01*
X76457476Y172426377D02*
X76362238Y172616853D01*
X78362238Y175473996D02*
X77409857Y174807329D01*
X78362238Y174331139D02*
X76362238Y174331139D01*
X76362238Y174331139D02*
X76362238Y175093044D01*
X76362238Y175093044D02*
X76457476Y175283520D01*
X76457476Y175283520D02*
X76552714Y175378758D01*
X76552714Y175378758D02*
X76743190Y175473996D01*
X76743190Y175473996D02*
X77028904Y175473996D01*
X77028904Y175473996D02*
X77219380Y175378758D01*
X77219380Y175378758D02*
X77314619Y175283520D01*
X77314619Y175283520D02*
X77409857Y175093044D01*
X77409857Y175093044D02*
X77409857Y174331139D01*
X77314619Y176331139D02*
X77314619Y176997806D01*
X78362238Y177283520D02*
X78362238Y176331139D01*
X78362238Y176331139D02*
X76362238Y176331139D01*
X76362238Y176331139D02*
X76362238Y177283520D01*
D12*
X77450000Y161500000D02*
X77450000Y-12180000D01*
D11*
X50462238Y163854949D02*
X52462238Y164521615D01*
X52462238Y164521615D02*
X50462238Y165188282D01*
X51700333Y165854949D02*
X51700333Y167378759D01*
X52367000Y168235901D02*
X52462238Y168521615D01*
X52462238Y168521615D02*
X52462238Y168997806D01*
X52462238Y168997806D02*
X52367000Y169188282D01*
X52367000Y169188282D02*
X52271761Y169283520D01*
X52271761Y169283520D02*
X52081285Y169378758D01*
X52081285Y169378758D02*
X51890809Y169378758D01*
X51890809Y169378758D02*
X51700333Y169283520D01*
X51700333Y169283520D02*
X51605095Y169188282D01*
X51605095Y169188282D02*
X51509857Y168997806D01*
X51509857Y168997806D02*
X51414619Y168616853D01*
X51414619Y168616853D02*
X51319380Y168426377D01*
X51319380Y168426377D02*
X51224142Y168331139D01*
X51224142Y168331139D02*
X51033666Y168235901D01*
X51033666Y168235901D02*
X50843190Y168235901D01*
X50843190Y168235901D02*
X50652714Y168331139D01*
X50652714Y168331139D02*
X50557476Y168426377D01*
X50557476Y168426377D02*
X50462238Y168616853D01*
X50462238Y168616853D02*
X50462238Y169093044D01*
X50462238Y169093044D02*
X50557476Y169378758D01*
X52271761Y171378758D02*
X52367000Y171283520D01*
X52367000Y171283520D02*
X52462238Y170997806D01*
X52462238Y170997806D02*
X52462238Y170807330D01*
X52462238Y170807330D02*
X52367000Y170521615D01*
X52367000Y170521615D02*
X52176523Y170331139D01*
X52176523Y170331139D02*
X51986047Y170235901D01*
X51986047Y170235901D02*
X51605095Y170140663D01*
X51605095Y170140663D02*
X51319380Y170140663D01*
X51319380Y170140663D02*
X50938428Y170235901D01*
X50938428Y170235901D02*
X50747952Y170331139D01*
X50747952Y170331139D02*
X50557476Y170521615D01*
X50557476Y170521615D02*
X50462238Y170807330D01*
X50462238Y170807330D02*
X50462238Y170997806D01*
X50462238Y170997806D02*
X50557476Y171283520D01*
X50557476Y171283520D02*
X50652714Y171378758D01*
X50462238Y172616853D02*
X50462238Y172997806D01*
X50462238Y172997806D02*
X50557476Y173188282D01*
X50557476Y173188282D02*
X50747952Y173378758D01*
X50747952Y173378758D02*
X51128904Y173473996D01*
X51128904Y173473996D02*
X51795571Y173473996D01*
X51795571Y173473996D02*
X52176523Y173378758D01*
X52176523Y173378758D02*
X52367000Y173188282D01*
X52367000Y173188282D02*
X52462238Y172997806D01*
X52462238Y172997806D02*
X52462238Y172616853D01*
X52462238Y172616853D02*
X52367000Y172426377D01*
X52367000Y172426377D02*
X52176523Y172235901D01*
X52176523Y172235901D02*
X51795571Y172140663D01*
X51795571Y172140663D02*
X51128904Y172140663D01*
X51128904Y172140663D02*
X50747952Y172235901D01*
X50747952Y172235901D02*
X50557476Y172426377D01*
X50557476Y172426377D02*
X50462238Y172616853D01*
X52462238Y175473996D02*
X51509857Y174807329D01*
X52462238Y174331139D02*
X50462238Y174331139D01*
X50462238Y174331139D02*
X50462238Y175093044D01*
X50462238Y175093044D02*
X50557476Y175283520D01*
X50557476Y175283520D02*
X50652714Y175378758D01*
X50652714Y175378758D02*
X50843190Y175473996D01*
X50843190Y175473996D02*
X51128904Y175473996D01*
X51128904Y175473996D02*
X51319380Y175378758D01*
X51319380Y175378758D02*
X51414619Y175283520D01*
X51414619Y175283520D02*
X51509857Y175093044D01*
X51509857Y175093044D02*
X51509857Y174331139D01*
X51414619Y176331139D02*
X51414619Y176997806D01*
X52462238Y177283520D02*
X52462238Y176331139D01*
X52462238Y176331139D02*
X50462238Y176331139D01*
X50462238Y176331139D02*
X50462238Y177283520D01*
D12*
X51550000Y161500000D02*
X51550000Y-12180000D01*
D11*
X24562238Y163854949D02*
X26562238Y164521615D01*
X26562238Y164521615D02*
X24562238Y165188282D01*
X25800333Y165854949D02*
X25800333Y167378759D01*
X26467000Y168235901D02*
X26562238Y168521615D01*
X26562238Y168521615D02*
X26562238Y168997806D01*
X26562238Y168997806D02*
X26467000Y169188282D01*
X26467000Y169188282D02*
X26371761Y169283520D01*
X26371761Y169283520D02*
X26181285Y169378758D01*
X26181285Y169378758D02*
X25990809Y169378758D01*
X25990809Y169378758D02*
X25800333Y169283520D01*
X25800333Y169283520D02*
X25705095Y169188282D01*
X25705095Y169188282D02*
X25609857Y168997806D01*
X25609857Y168997806D02*
X25514619Y168616853D01*
X25514619Y168616853D02*
X25419380Y168426377D01*
X25419380Y168426377D02*
X25324142Y168331139D01*
X25324142Y168331139D02*
X25133666Y168235901D01*
X25133666Y168235901D02*
X24943190Y168235901D01*
X24943190Y168235901D02*
X24752714Y168331139D01*
X24752714Y168331139D02*
X24657476Y168426377D01*
X24657476Y168426377D02*
X24562238Y168616853D01*
X24562238Y168616853D02*
X24562238Y169093044D01*
X24562238Y169093044D02*
X24657476Y169378758D01*
X26371761Y171378758D02*
X26467000Y171283520D01*
X26467000Y171283520D02*
X26562238Y170997806D01*
X26562238Y170997806D02*
X26562238Y170807330D01*
X26562238Y170807330D02*
X26467000Y170521615D01*
X26467000Y170521615D02*
X26276523Y170331139D01*
X26276523Y170331139D02*
X26086047Y170235901D01*
X26086047Y170235901D02*
X25705095Y170140663D01*
X25705095Y170140663D02*
X25419380Y170140663D01*
X25419380Y170140663D02*
X25038428Y170235901D01*
X25038428Y170235901D02*
X24847952Y170331139D01*
X24847952Y170331139D02*
X24657476Y170521615D01*
X24657476Y170521615D02*
X24562238Y170807330D01*
X24562238Y170807330D02*
X24562238Y170997806D01*
X24562238Y170997806D02*
X24657476Y171283520D01*
X24657476Y171283520D02*
X24752714Y171378758D01*
X24562238Y172616853D02*
X24562238Y172997806D01*
X24562238Y172997806D02*
X24657476Y173188282D01*
X24657476Y173188282D02*
X24847952Y173378758D01*
X24847952Y173378758D02*
X25228904Y173473996D01*
X25228904Y173473996D02*
X25895571Y173473996D01*
X25895571Y173473996D02*
X26276523Y173378758D01*
X26276523Y173378758D02*
X26467000Y173188282D01*
X26467000Y173188282D02*
X26562238Y172997806D01*
X26562238Y172997806D02*
X26562238Y172616853D01*
X26562238Y172616853D02*
X26467000Y172426377D01*
X26467000Y172426377D02*
X26276523Y172235901D01*
X26276523Y172235901D02*
X25895571Y172140663D01*
X25895571Y172140663D02*
X25228904Y172140663D01*
X25228904Y172140663D02*
X24847952Y172235901D01*
X24847952Y172235901D02*
X24657476Y172426377D01*
X24657476Y172426377D02*
X24562238Y172616853D01*
X26562238Y175473996D02*
X25609857Y174807329D01*
X26562238Y174331139D02*
X24562238Y174331139D01*
X24562238Y174331139D02*
X24562238Y175093044D01*
X24562238Y175093044D02*
X24657476Y175283520D01*
X24657476Y175283520D02*
X24752714Y175378758D01*
X24752714Y175378758D02*
X24943190Y175473996D01*
X24943190Y175473996D02*
X25228904Y175473996D01*
X25228904Y175473996D02*
X25419380Y175378758D01*
X25419380Y175378758D02*
X25514619Y175283520D01*
X25514619Y175283520D02*
X25609857Y175093044D01*
X25609857Y175093044D02*
X25609857Y174331139D01*
X25514619Y176331139D02*
X25514619Y176997806D01*
X26562238Y177283520D02*
X26562238Y176331139D01*
X26562238Y176331139D02*
X24562238Y176331139D01*
X24562238Y176331139D02*
X24562238Y177283520D01*
D12*
X25650000Y161500000D02*
X25650000Y-12180000D01*
D11*
X-1337762Y163854949D02*
X662238Y164521615D01*
X662238Y164521615D02*
X-1337762Y165188282D01*
X-99667Y165854949D02*
X-99667Y167378759D01*
X567000Y168235901D02*
X662238Y168521615D01*
X662238Y168521615D02*
X662238Y168997806D01*
X662238Y168997806D02*
X567000Y169188282D01*
X567000Y169188282D02*
X471761Y169283520D01*
X471761Y169283520D02*
X281285Y169378758D01*
X281285Y169378758D02*
X90809Y169378758D01*
X90809Y169378758D02*
X-99667Y169283520D01*
X-99667Y169283520D02*
X-194905Y169188282D01*
X-194905Y169188282D02*
X-290143Y168997806D01*
X-290143Y168997806D02*
X-385381Y168616853D01*
X-385381Y168616853D02*
X-480620Y168426377D01*
X-480620Y168426377D02*
X-575858Y168331139D01*
X-575858Y168331139D02*
X-766334Y168235901D01*
X-766334Y168235901D02*
X-956810Y168235901D01*
X-956810Y168235901D02*
X-1147286Y168331139D01*
X-1147286Y168331139D02*
X-1242524Y168426377D01*
X-1242524Y168426377D02*
X-1337762Y168616853D01*
X-1337762Y168616853D02*
X-1337762Y169093044D01*
X-1337762Y169093044D02*
X-1242524Y169378758D01*
X471761Y171378758D02*
X567000Y171283520D01*
X567000Y171283520D02*
X662238Y170997806D01*
X662238Y170997806D02*
X662238Y170807330D01*
X662238Y170807330D02*
X567000Y170521615D01*
X567000Y170521615D02*
X376523Y170331139D01*
X376523Y170331139D02*
X186047Y170235901D01*
X186047Y170235901D02*
X-194905Y170140663D01*
X-194905Y170140663D02*
X-480620Y170140663D01*
X-480620Y170140663D02*
X-861572Y170235901D01*
X-861572Y170235901D02*
X-1052048Y170331139D01*
X-1052048Y170331139D02*
X-1242524Y170521615D01*
X-1242524Y170521615D02*
X-1337762Y170807330D01*
X-1337762Y170807330D02*
X-1337762Y170997806D01*
X-1337762Y170997806D02*
X-1242524Y171283520D01*
X-1242524Y171283520D02*
X-1147286Y171378758D01*
X-1337762Y172616853D02*
X-1337762Y172997806D01*
X-1337762Y172997806D02*
X-1242524Y173188282D01*
X-1242524Y173188282D02*
X-1052048Y173378758D01*
X-1052048Y173378758D02*
X-671096Y173473996D01*
X-671096Y173473996D02*
X-4429Y173473996D01*
X-4429Y173473996D02*
X376523Y173378758D01*
X376523Y173378758D02*
X567000Y173188282D01*
X567000Y173188282D02*
X662238Y172997806D01*
X662238Y172997806D02*
X662238Y172616853D01*
X662238Y172616853D02*
X567000Y172426377D01*
X567000Y172426377D02*
X376523Y172235901D01*
X376523Y172235901D02*
X-4429Y172140663D01*
X-4429Y172140663D02*
X-671096Y172140663D01*
X-671096Y172140663D02*
X-1052048Y172235901D01*
X-1052048Y172235901D02*
X-1242524Y172426377D01*
X-1242524Y172426377D02*
X-1337762Y172616853D01*
X662238Y175473996D02*
X-290143Y174807329D01*
X662238Y174331139D02*
X-1337762Y174331139D01*
X-1337762Y174331139D02*
X-1337762Y175093044D01*
X-1337762Y175093044D02*
X-1242524Y175283520D01*
X-1242524Y175283520D02*
X-1147286Y175378758D01*
X-1147286Y175378758D02*
X-956810Y175473996D01*
X-956810Y175473996D02*
X-671096Y175473996D01*
X-671096Y175473996D02*
X-480620Y175378758D01*
X-480620Y175378758D02*
X-385381Y175283520D01*
X-385381Y175283520D02*
X-290143Y175093044D01*
X-290143Y175093044D02*
X-290143Y174331139D01*
X-385381Y176331139D02*
X-385381Y176997806D01*
X662238Y177283520D02*
X662238Y176331139D01*
X662238Y176331139D02*
X-1337762Y176331139D01*
X-1337762Y176331139D02*
X-1337762Y177283520D01*
D12*
X-250000Y161500000D02*
X-250000Y-12180000D01*
M02*
