%TF.GenerationSoftware,KiCad,Pcbnew,8.0.8*%
%TF.CreationDate,2025-02-19T12:52:30-07:00*%
%TF.ProjectId,SparkFun_Audio_Player_Breakout_MY1690X-16S_panelized,53706172-6b46-4756-9e5f-417564696f5f,v10*%
%TF.SameCoordinates,Original*%
%TF.FileFunction,Paste,Bot*%
%TF.FilePolarity,Positive*%
%FSLAX46Y46*%
G04 Gerber Fmt 4.6, Leading zero omitted, Abs format (unit mm)*
G04 Created by KiCad (PCBNEW 8.0.8) date 2025-02-19 12:52:30*
%MOMM*%
%LPD*%
G01*
G04 APERTURE LIST*
G04 Aperture macros list*
%AMRoundRect*
0 Rectangle with rounded corners*
0 $1 Rounding radius*
0 $2 $3 $4 $5 $6 $7 $8 $9 X,Y pos of 4 corners*
0 Add a 4 corners polygon primitive as box body*
4,1,4,$2,$3,$4,$5,$6,$7,$8,$9,$2,$3,0*
0 Add four circle primitives for the rounded corners*
1,1,$1+$1,$2,$3*
1,1,$1+$1,$4,$5*
1,1,$1+$1,$6,$7*
1,1,$1+$1,$8,$9*
0 Add four rect primitives between the rounded corners*
20,1,$1+$1,$2,$3,$4,$5,0*
20,1,$1+$1,$4,$5,$6,$7,0*
20,1,$1+$1,$6,$7,$8,$9,0*
20,1,$1+$1,$8,$9,$2,$3,0*%
G04 Aperture macros list end*
%ADD10RoundRect,0.225000X-0.225000X-0.250000X0.225000X-0.250000X0.225000X0.250000X-0.225000X0.250000X0*%
%ADD11RoundRect,0.225000X0.225000X0.250000X-0.225000X0.250000X-0.225000X-0.250000X0.225000X-0.250000X0*%
%ADD12RoundRect,0.200000X-0.275000X0.200000X-0.275000X-0.200000X0.275000X-0.200000X0.275000X0.200000X0*%
%ADD13R,0.700000X1.600000*%
%ADD14R,1.200000X1.600000*%
%ADD15R,1.200000X2.200000*%
%ADD16R,1.600000X1.400000*%
%ADD17RoundRect,0.225000X-0.250000X0.225000X-0.250000X-0.225000X0.250000X-0.225000X0.250000X0.225000X0*%
%ADD18RoundRect,0.250000X0.475000X-0.250000X0.475000X0.250000X-0.475000X0.250000X-0.475000X-0.250000X0*%
%ADD19RoundRect,0.225000X0.250000X-0.225000X0.250000X0.225000X-0.250000X0.225000X-0.250000X-0.225000X0*%
G04 APERTURE END LIST*
D10*
%TO.C,C2*%
X90637000Y132521000D03*
X92187000Y132521000D03*
%TD*%
%TO.C,C2*%
X90637000Y101541000D03*
X92187000Y101541000D03*
%TD*%
%TO.C,C2*%
X90637000Y70561000D03*
X92187000Y70561000D03*
%TD*%
%TO.C,C2*%
X90637000Y39581000D03*
X92187000Y39581000D03*
%TD*%
%TO.C,C2*%
X90637000Y8601000D03*
X92187000Y8601000D03*
%TD*%
%TO.C,C2*%
X64737000Y132521000D03*
X66287000Y132521000D03*
%TD*%
%TO.C,C2*%
X64737000Y101541000D03*
X66287000Y101541000D03*
%TD*%
%TO.C,C2*%
X64737000Y70561000D03*
X66287000Y70561000D03*
%TD*%
%TO.C,C2*%
X64737000Y39581000D03*
X66287000Y39581000D03*
%TD*%
%TO.C,C2*%
X64737000Y8601000D03*
X66287000Y8601000D03*
%TD*%
%TO.C,C2*%
X38837000Y132521000D03*
X40387000Y132521000D03*
%TD*%
%TO.C,C2*%
X38837000Y101541000D03*
X40387000Y101541000D03*
%TD*%
%TO.C,C2*%
X38837000Y70561000D03*
X40387000Y70561000D03*
%TD*%
%TO.C,C2*%
X38837000Y39581000D03*
X40387000Y39581000D03*
%TD*%
%TO.C,C2*%
X38837000Y8601000D03*
X40387000Y8601000D03*
%TD*%
%TO.C,C2*%
X12937000Y132521000D03*
X14487000Y132521000D03*
%TD*%
%TO.C,C2*%
X12937000Y101541000D03*
X14487000Y101541000D03*
%TD*%
%TO.C,C2*%
X12937000Y70561000D03*
X14487000Y70561000D03*
%TD*%
%TO.C,C2*%
X12937000Y39581000D03*
X14487000Y39581000D03*
%TD*%
D11*
%TO.C,C3*%
X89148000Y132547000D03*
X87598000Y132547000D03*
%TD*%
%TO.C,C3*%
X89148000Y101567000D03*
X87598000Y101567000D03*
%TD*%
%TO.C,C3*%
X89148000Y70587000D03*
X87598000Y70587000D03*
%TD*%
%TO.C,C3*%
X89148000Y39607000D03*
X87598000Y39607000D03*
%TD*%
%TO.C,C3*%
X89148000Y8627000D03*
X87598000Y8627000D03*
%TD*%
%TO.C,C3*%
X63248000Y132547000D03*
X61698000Y132547000D03*
%TD*%
%TO.C,C3*%
X63248000Y101567000D03*
X61698000Y101567000D03*
%TD*%
%TO.C,C3*%
X63248000Y70587000D03*
X61698000Y70587000D03*
%TD*%
%TO.C,C3*%
X63248000Y39607000D03*
X61698000Y39607000D03*
%TD*%
%TO.C,C3*%
X63248000Y8627000D03*
X61698000Y8627000D03*
%TD*%
%TO.C,C3*%
X37348000Y132547000D03*
X35798000Y132547000D03*
%TD*%
%TO.C,C3*%
X37348000Y101567000D03*
X35798000Y101567000D03*
%TD*%
%TO.C,C3*%
X37348000Y70587000D03*
X35798000Y70587000D03*
%TD*%
%TO.C,C3*%
X37348000Y39607000D03*
X35798000Y39607000D03*
%TD*%
%TO.C,C3*%
X37348000Y8627000D03*
X35798000Y8627000D03*
%TD*%
%TO.C,C3*%
X11448000Y132547000D03*
X9898000Y132547000D03*
%TD*%
%TO.C,C3*%
X11448000Y101567000D03*
X9898000Y101567000D03*
%TD*%
%TO.C,C3*%
X11448000Y70587000D03*
X9898000Y70587000D03*
%TD*%
%TO.C,C3*%
X11448000Y39607000D03*
X9898000Y39607000D03*
%TD*%
%TO.C,C1*%
X93750000Y126850000D03*
X92200000Y126850000D03*
%TD*%
%TO.C,C1*%
X93750000Y95870000D03*
X92200000Y95870000D03*
%TD*%
%TO.C,C1*%
X93750000Y64890000D03*
X92200000Y64890000D03*
%TD*%
%TO.C,C1*%
X93750000Y33910000D03*
X92200000Y33910000D03*
%TD*%
%TO.C,C1*%
X93750000Y2930000D03*
X92200000Y2930000D03*
%TD*%
%TO.C,C1*%
X67850000Y126850000D03*
X66300000Y126850000D03*
%TD*%
%TO.C,C1*%
X67850000Y95870000D03*
X66300000Y95870000D03*
%TD*%
%TO.C,C1*%
X67850000Y64890000D03*
X66300000Y64890000D03*
%TD*%
%TO.C,C1*%
X67850000Y33910000D03*
X66300000Y33910000D03*
%TD*%
%TO.C,C1*%
X67850000Y2930000D03*
X66300000Y2930000D03*
%TD*%
%TO.C,C1*%
X41950000Y126850000D03*
X40400000Y126850000D03*
%TD*%
%TO.C,C1*%
X41950000Y95870000D03*
X40400000Y95870000D03*
%TD*%
%TO.C,C1*%
X41950000Y64890000D03*
X40400000Y64890000D03*
%TD*%
%TO.C,C1*%
X41950000Y33910000D03*
X40400000Y33910000D03*
%TD*%
%TO.C,C1*%
X41950000Y2930000D03*
X40400000Y2930000D03*
%TD*%
%TO.C,C1*%
X16050000Y126850000D03*
X14500000Y126850000D03*
%TD*%
%TO.C,C1*%
X16050000Y95870000D03*
X14500000Y95870000D03*
%TD*%
%TO.C,C1*%
X16050000Y64890000D03*
X14500000Y64890000D03*
%TD*%
%TO.C,C1*%
X16050000Y33910000D03*
X14500000Y33910000D03*
%TD*%
D12*
%TO.C,R6*%
X84998000Y132639000D03*
X84998000Y130989000D03*
%TD*%
%TO.C,R6*%
X84998000Y101659000D03*
X84998000Y100009000D03*
%TD*%
%TO.C,R6*%
X84998000Y70679000D03*
X84998000Y69029000D03*
%TD*%
%TO.C,R6*%
X84998000Y39699000D03*
X84998000Y38049000D03*
%TD*%
%TO.C,R6*%
X84998000Y8719000D03*
X84998000Y7069000D03*
%TD*%
%TO.C,R6*%
X59098000Y132639000D03*
X59098000Y130989000D03*
%TD*%
%TO.C,R6*%
X59098000Y101659000D03*
X59098000Y100009000D03*
%TD*%
%TO.C,R6*%
X59098000Y70679000D03*
X59098000Y69029000D03*
%TD*%
%TO.C,R6*%
X59098000Y39699000D03*
X59098000Y38049000D03*
%TD*%
%TO.C,R6*%
X59098000Y8719000D03*
X59098000Y7069000D03*
%TD*%
%TO.C,R6*%
X33198000Y132639000D03*
X33198000Y130989000D03*
%TD*%
%TO.C,R6*%
X33198000Y101659000D03*
X33198000Y100009000D03*
%TD*%
%TO.C,R6*%
X33198000Y70679000D03*
X33198000Y69029000D03*
%TD*%
%TO.C,R6*%
X33198000Y39699000D03*
X33198000Y38049000D03*
%TD*%
%TO.C,R6*%
X33198000Y8719000D03*
X33198000Y7069000D03*
%TD*%
%TO.C,R6*%
X7298000Y132639000D03*
X7298000Y130989000D03*
%TD*%
%TO.C,R6*%
X7298000Y101659000D03*
X7298000Y100009000D03*
%TD*%
%TO.C,R6*%
X7298000Y70679000D03*
X7298000Y69029000D03*
%TD*%
%TO.C,R6*%
X7298000Y39699000D03*
X7298000Y38049000D03*
%TD*%
D13*
%TO.C,J6*%
X92650000Y134502000D03*
X91550000Y134502000D03*
X90450000Y134502000D03*
X89350000Y134502000D03*
X88250000Y134502000D03*
X87150000Y134502000D03*
X86050000Y134502000D03*
X84950000Y134502000D03*
X83850000Y134502000D03*
D14*
X82650000Y135102000D03*
D15*
X82650000Y144602000D03*
X98150000Y144602000D03*
D16*
X97250000Y135002000D03*
%TD*%
D13*
%TO.C,J6*%
X92650000Y103522000D03*
X91550000Y103522000D03*
X90450000Y103522000D03*
X89350000Y103522000D03*
X88250000Y103522000D03*
X87150000Y103522000D03*
X86050000Y103522000D03*
X84950000Y103522000D03*
X83850000Y103522000D03*
D14*
X82650000Y104122000D03*
D15*
X82650000Y113622000D03*
X98150000Y113622000D03*
D16*
X97250000Y104022000D03*
%TD*%
D13*
%TO.C,J6*%
X92650000Y72542000D03*
X91550000Y72542000D03*
X90450000Y72542000D03*
X89350000Y72542000D03*
X88250000Y72542000D03*
X87150000Y72542000D03*
X86050000Y72542000D03*
X84950000Y72542000D03*
X83850000Y72542000D03*
D14*
X82650000Y73142000D03*
D15*
X82650000Y82642000D03*
X98150000Y82642000D03*
D16*
X97250000Y73042000D03*
%TD*%
D13*
%TO.C,J6*%
X92650000Y41562000D03*
X91550000Y41562000D03*
X90450000Y41562000D03*
X89350000Y41562000D03*
X88250000Y41562000D03*
X87150000Y41562000D03*
X86050000Y41562000D03*
X84950000Y41562000D03*
X83850000Y41562000D03*
D14*
X82650000Y42162000D03*
D15*
X82650000Y51662000D03*
X98150000Y51662000D03*
D16*
X97250000Y42062000D03*
%TD*%
D13*
%TO.C,J6*%
X92650000Y10582000D03*
X91550000Y10582000D03*
X90450000Y10582000D03*
X89350000Y10582000D03*
X88250000Y10582000D03*
X87150000Y10582000D03*
X86050000Y10582000D03*
X84950000Y10582000D03*
X83850000Y10582000D03*
D14*
X82650000Y11182000D03*
D15*
X82650000Y20682000D03*
X98150000Y20682000D03*
D16*
X97250000Y11082000D03*
%TD*%
D13*
%TO.C,J6*%
X66750000Y134502000D03*
X65650000Y134502000D03*
X64550000Y134502000D03*
X63450000Y134502000D03*
X62350000Y134502000D03*
X61250000Y134502000D03*
X60150000Y134502000D03*
X59050000Y134502000D03*
X57950000Y134502000D03*
D14*
X56750000Y135102000D03*
D15*
X56750000Y144602000D03*
X72250000Y144602000D03*
D16*
X71350000Y135002000D03*
%TD*%
D13*
%TO.C,J6*%
X66750000Y103522000D03*
X65650000Y103522000D03*
X64550000Y103522000D03*
X63450000Y103522000D03*
X62350000Y103522000D03*
X61250000Y103522000D03*
X60150000Y103522000D03*
X59050000Y103522000D03*
X57950000Y103522000D03*
D14*
X56750000Y104122000D03*
D15*
X56750000Y113622000D03*
X72250000Y113622000D03*
D16*
X71350000Y104022000D03*
%TD*%
D13*
%TO.C,J6*%
X66750000Y72542000D03*
X65650000Y72542000D03*
X64550000Y72542000D03*
X63450000Y72542000D03*
X62350000Y72542000D03*
X61250000Y72542000D03*
X60150000Y72542000D03*
X59050000Y72542000D03*
X57950000Y72542000D03*
D14*
X56750000Y73142000D03*
D15*
X56750000Y82642000D03*
X72250000Y82642000D03*
D16*
X71350000Y73042000D03*
%TD*%
D13*
%TO.C,J6*%
X66750000Y41562000D03*
X65650000Y41562000D03*
X64550000Y41562000D03*
X63450000Y41562000D03*
X62350000Y41562000D03*
X61250000Y41562000D03*
X60150000Y41562000D03*
X59050000Y41562000D03*
X57950000Y41562000D03*
D14*
X56750000Y42162000D03*
D15*
X56750000Y51662000D03*
X72250000Y51662000D03*
D16*
X71350000Y42062000D03*
%TD*%
D13*
%TO.C,J6*%
X66750000Y10582000D03*
X65650000Y10582000D03*
X64550000Y10582000D03*
X63450000Y10582000D03*
X62350000Y10582000D03*
X61250000Y10582000D03*
X60150000Y10582000D03*
X59050000Y10582000D03*
X57950000Y10582000D03*
D14*
X56750000Y11182000D03*
D15*
X56750000Y20682000D03*
X72250000Y20682000D03*
D16*
X71350000Y11082000D03*
%TD*%
D13*
%TO.C,J6*%
X40850000Y134502000D03*
X39750000Y134502000D03*
X38650000Y134502000D03*
X37550000Y134502000D03*
X36450000Y134502000D03*
X35350000Y134502000D03*
X34250000Y134502000D03*
X33150000Y134502000D03*
X32050000Y134502000D03*
D14*
X30850000Y135102000D03*
D15*
X30850000Y144602000D03*
X46350000Y144602000D03*
D16*
X45450000Y135002000D03*
%TD*%
D13*
%TO.C,J6*%
X40850000Y103522000D03*
X39750000Y103522000D03*
X38650000Y103522000D03*
X37550000Y103522000D03*
X36450000Y103522000D03*
X35350000Y103522000D03*
X34250000Y103522000D03*
X33150000Y103522000D03*
X32050000Y103522000D03*
D14*
X30850000Y104122000D03*
D15*
X30850000Y113622000D03*
X46350000Y113622000D03*
D16*
X45450000Y104022000D03*
%TD*%
D13*
%TO.C,J6*%
X40850000Y72542000D03*
X39750000Y72542000D03*
X38650000Y72542000D03*
X37550000Y72542000D03*
X36450000Y72542000D03*
X35350000Y72542000D03*
X34250000Y72542000D03*
X33150000Y72542000D03*
X32050000Y72542000D03*
D14*
X30850000Y73142000D03*
D15*
X30850000Y82642000D03*
X46350000Y82642000D03*
D16*
X45450000Y73042000D03*
%TD*%
D13*
%TO.C,J6*%
X40850000Y41562000D03*
X39750000Y41562000D03*
X38650000Y41562000D03*
X37550000Y41562000D03*
X36450000Y41562000D03*
X35350000Y41562000D03*
X34250000Y41562000D03*
X33150000Y41562000D03*
X32050000Y41562000D03*
D14*
X30850000Y42162000D03*
D15*
X30850000Y51662000D03*
X46350000Y51662000D03*
D16*
X45450000Y42062000D03*
%TD*%
D13*
%TO.C,J6*%
X40850000Y10582000D03*
X39750000Y10582000D03*
X38650000Y10582000D03*
X37550000Y10582000D03*
X36450000Y10582000D03*
X35350000Y10582000D03*
X34250000Y10582000D03*
X33150000Y10582000D03*
X32050000Y10582000D03*
D14*
X30850000Y11182000D03*
D15*
X30850000Y20682000D03*
X46350000Y20682000D03*
D16*
X45450000Y11082000D03*
%TD*%
D13*
%TO.C,J6*%
X14950000Y134502000D03*
X13850000Y134502000D03*
X12750000Y134502000D03*
X11650000Y134502000D03*
X10550000Y134502000D03*
X9450000Y134502000D03*
X8350000Y134502000D03*
X7250000Y134502000D03*
X6150000Y134502000D03*
D14*
X4950000Y135102000D03*
D15*
X4950000Y144602000D03*
X20450000Y144602000D03*
D16*
X19550000Y135002000D03*
%TD*%
D13*
%TO.C,J6*%
X14950000Y103522000D03*
X13850000Y103522000D03*
X12750000Y103522000D03*
X11650000Y103522000D03*
X10550000Y103522000D03*
X9450000Y103522000D03*
X8350000Y103522000D03*
X7250000Y103522000D03*
X6150000Y103522000D03*
D14*
X4950000Y104122000D03*
D15*
X4950000Y113622000D03*
X20450000Y113622000D03*
D16*
X19550000Y104022000D03*
%TD*%
D13*
%TO.C,J6*%
X14950000Y72542000D03*
X13850000Y72542000D03*
X12750000Y72542000D03*
X11650000Y72542000D03*
X10550000Y72542000D03*
X9450000Y72542000D03*
X8350000Y72542000D03*
X7250000Y72542000D03*
X6150000Y72542000D03*
D14*
X4950000Y73142000D03*
D15*
X4950000Y82642000D03*
X20450000Y82642000D03*
D16*
X19550000Y73042000D03*
%TD*%
D13*
%TO.C,J6*%
X14950000Y41562000D03*
X13850000Y41562000D03*
X12750000Y41562000D03*
X11650000Y41562000D03*
X10550000Y41562000D03*
X9450000Y41562000D03*
X8350000Y41562000D03*
X7250000Y41562000D03*
X6150000Y41562000D03*
D14*
X4950000Y42162000D03*
D15*
X4950000Y51662000D03*
X20450000Y51662000D03*
D16*
X19550000Y42062000D03*
%TD*%
D17*
%TO.C,C6*%
X102144000Y127924000D03*
X102144000Y126374000D03*
%TD*%
%TO.C,C6*%
X102144000Y96944000D03*
X102144000Y95394000D03*
%TD*%
%TO.C,C6*%
X102144000Y65964000D03*
X102144000Y64414000D03*
%TD*%
%TO.C,C6*%
X102144000Y34984000D03*
X102144000Y33434000D03*
%TD*%
%TO.C,C6*%
X102144000Y4004000D03*
X102144000Y2454000D03*
%TD*%
%TO.C,C6*%
X76244000Y127924000D03*
X76244000Y126374000D03*
%TD*%
%TO.C,C6*%
X76244000Y96944000D03*
X76244000Y95394000D03*
%TD*%
%TO.C,C6*%
X76244000Y65964000D03*
X76244000Y64414000D03*
%TD*%
%TO.C,C6*%
X76244000Y34984000D03*
X76244000Y33434000D03*
%TD*%
%TO.C,C6*%
X76244000Y4004000D03*
X76244000Y2454000D03*
%TD*%
%TO.C,C6*%
X50344000Y127924000D03*
X50344000Y126374000D03*
%TD*%
%TO.C,C6*%
X50344000Y96944000D03*
X50344000Y95394000D03*
%TD*%
%TO.C,C6*%
X50344000Y65964000D03*
X50344000Y64414000D03*
%TD*%
%TO.C,C6*%
X50344000Y34984000D03*
X50344000Y33434000D03*
%TD*%
%TO.C,C6*%
X50344000Y4004000D03*
X50344000Y2454000D03*
%TD*%
%TO.C,C6*%
X24444000Y127924000D03*
X24444000Y126374000D03*
%TD*%
%TO.C,C6*%
X24444000Y96944000D03*
X24444000Y95394000D03*
%TD*%
%TO.C,C6*%
X24444000Y65964000D03*
X24444000Y64414000D03*
%TD*%
%TO.C,C6*%
X24444000Y34984000D03*
X24444000Y33434000D03*
%TD*%
D18*
%TO.C,C5*%
X97367000Y125224000D03*
X97367000Y127124000D03*
%TD*%
%TO.C,C5*%
X97367000Y94244000D03*
X97367000Y96144000D03*
%TD*%
%TO.C,C5*%
X97367000Y63264000D03*
X97367000Y65164000D03*
%TD*%
%TO.C,C5*%
X97367000Y32284000D03*
X97367000Y34184000D03*
%TD*%
%TO.C,C5*%
X97367000Y1304000D03*
X97367000Y3204000D03*
%TD*%
%TO.C,C5*%
X71467000Y125224000D03*
X71467000Y127124000D03*
%TD*%
%TO.C,C5*%
X71467000Y94244000D03*
X71467000Y96144000D03*
%TD*%
%TO.C,C5*%
X71467000Y63264000D03*
X71467000Y65164000D03*
%TD*%
%TO.C,C5*%
X71467000Y32284000D03*
X71467000Y34184000D03*
%TD*%
%TO.C,C5*%
X71467000Y1304000D03*
X71467000Y3204000D03*
%TD*%
%TO.C,C5*%
X45567000Y125224000D03*
X45567000Y127124000D03*
%TD*%
%TO.C,C5*%
X45567000Y94244000D03*
X45567000Y96144000D03*
%TD*%
%TO.C,C5*%
X45567000Y63264000D03*
X45567000Y65164000D03*
%TD*%
%TO.C,C5*%
X45567000Y32284000D03*
X45567000Y34184000D03*
%TD*%
%TO.C,C5*%
X45567000Y1304000D03*
X45567000Y3204000D03*
%TD*%
%TO.C,C5*%
X19667000Y125224000D03*
X19667000Y127124000D03*
%TD*%
%TO.C,C5*%
X19667000Y94244000D03*
X19667000Y96144000D03*
%TD*%
%TO.C,C5*%
X19667000Y63264000D03*
X19667000Y65164000D03*
%TD*%
%TO.C,C5*%
X19667000Y32284000D03*
X19667000Y34184000D03*
%TD*%
D19*
%TO.C,C9*%
X100722000Y132529000D03*
X100722000Y134079000D03*
%TD*%
%TO.C,C9*%
X100722000Y101549000D03*
X100722000Y103099000D03*
%TD*%
%TO.C,C9*%
X100722000Y70569000D03*
X100722000Y72119000D03*
%TD*%
%TO.C,C9*%
X100722000Y39589000D03*
X100722000Y41139000D03*
%TD*%
%TO.C,C9*%
X100722000Y8609000D03*
X100722000Y10159000D03*
%TD*%
%TO.C,C9*%
X74822000Y132529000D03*
X74822000Y134079000D03*
%TD*%
%TO.C,C9*%
X74822000Y101549000D03*
X74822000Y103099000D03*
%TD*%
%TO.C,C9*%
X74822000Y70569000D03*
X74822000Y72119000D03*
%TD*%
%TO.C,C9*%
X74822000Y39589000D03*
X74822000Y41139000D03*
%TD*%
%TO.C,C9*%
X74822000Y8609000D03*
X74822000Y10159000D03*
%TD*%
%TO.C,C9*%
X48922000Y132529000D03*
X48922000Y134079000D03*
%TD*%
%TO.C,C9*%
X48922000Y101549000D03*
X48922000Y103099000D03*
%TD*%
%TO.C,C9*%
X48922000Y70569000D03*
X48922000Y72119000D03*
%TD*%
%TO.C,C9*%
X48922000Y39589000D03*
X48922000Y41139000D03*
%TD*%
%TO.C,C9*%
X48922000Y8609000D03*
X48922000Y10159000D03*
%TD*%
%TO.C,C9*%
X23022000Y132529000D03*
X23022000Y134079000D03*
%TD*%
%TO.C,C9*%
X23022000Y101549000D03*
X23022000Y103099000D03*
%TD*%
%TO.C,C9*%
X23022000Y70569000D03*
X23022000Y72119000D03*
%TD*%
%TO.C,C9*%
X23022000Y39589000D03*
X23022000Y41139000D03*
%TD*%
D18*
%TO.C,C4*%
X99442000Y125224000D03*
X99442000Y127124000D03*
%TD*%
%TO.C,C4*%
X99442000Y94244000D03*
X99442000Y96144000D03*
%TD*%
%TO.C,C4*%
X99442000Y63264000D03*
X99442000Y65164000D03*
%TD*%
%TO.C,C4*%
X99442000Y32284000D03*
X99442000Y34184000D03*
%TD*%
%TO.C,C4*%
X99442000Y1304000D03*
X99442000Y3204000D03*
%TD*%
%TO.C,C4*%
X73542000Y125224000D03*
X73542000Y127124000D03*
%TD*%
%TO.C,C4*%
X73542000Y94244000D03*
X73542000Y96144000D03*
%TD*%
%TO.C,C4*%
X73542000Y63264000D03*
X73542000Y65164000D03*
%TD*%
%TO.C,C4*%
X73542000Y32284000D03*
X73542000Y34184000D03*
%TD*%
%TO.C,C4*%
X73542000Y1304000D03*
X73542000Y3204000D03*
%TD*%
%TO.C,C4*%
X47642000Y125224000D03*
X47642000Y127124000D03*
%TD*%
%TO.C,C4*%
X47642000Y94244000D03*
X47642000Y96144000D03*
%TD*%
%TO.C,C4*%
X47642000Y63264000D03*
X47642000Y65164000D03*
%TD*%
%TO.C,C4*%
X47642000Y32284000D03*
X47642000Y34184000D03*
%TD*%
%TO.C,C4*%
X47642000Y1304000D03*
X47642000Y3204000D03*
%TD*%
%TO.C,C4*%
X21742000Y125224000D03*
X21742000Y127124000D03*
%TD*%
%TO.C,C4*%
X21742000Y94244000D03*
X21742000Y96144000D03*
%TD*%
%TO.C,C4*%
X21742000Y63264000D03*
X21742000Y65164000D03*
%TD*%
%TO.C,C4*%
X21742000Y32284000D03*
X21742000Y34184000D03*
%TD*%
D10*
%TO.C,C7*%
X100688000Y135567000D03*
X102238000Y135567000D03*
%TD*%
%TO.C,C7*%
X100688000Y104587000D03*
X102238000Y104587000D03*
%TD*%
%TO.C,C7*%
X100688000Y73607000D03*
X102238000Y73607000D03*
%TD*%
%TO.C,C7*%
X100688000Y42627000D03*
X102238000Y42627000D03*
%TD*%
%TO.C,C7*%
X100688000Y11647000D03*
X102238000Y11647000D03*
%TD*%
%TO.C,C7*%
X74788000Y135567000D03*
X76338000Y135567000D03*
%TD*%
%TO.C,C7*%
X74788000Y104587000D03*
X76338000Y104587000D03*
%TD*%
%TO.C,C7*%
X74788000Y73607000D03*
X76338000Y73607000D03*
%TD*%
%TO.C,C7*%
X74788000Y42627000D03*
X76338000Y42627000D03*
%TD*%
%TO.C,C7*%
X74788000Y11647000D03*
X76338000Y11647000D03*
%TD*%
%TO.C,C7*%
X48888000Y135567000D03*
X50438000Y135567000D03*
%TD*%
%TO.C,C7*%
X48888000Y104587000D03*
X50438000Y104587000D03*
%TD*%
%TO.C,C7*%
X48888000Y73607000D03*
X50438000Y73607000D03*
%TD*%
%TO.C,C7*%
X48888000Y42627000D03*
X50438000Y42627000D03*
%TD*%
%TO.C,C7*%
X48888000Y11647000D03*
X50438000Y11647000D03*
%TD*%
%TO.C,C7*%
X22988000Y135567000D03*
X24538000Y135567000D03*
%TD*%
%TO.C,C7*%
X22988000Y104587000D03*
X24538000Y104587000D03*
%TD*%
%TO.C,C7*%
X22988000Y73607000D03*
X24538000Y73607000D03*
%TD*%
%TO.C,C7*%
X22988000Y42627000D03*
X24538000Y42627000D03*
%TD*%
D19*
%TO.C,C8*%
X102237000Y132529000D03*
X102237000Y134079000D03*
%TD*%
%TO.C,C8*%
X102237000Y101549000D03*
X102237000Y103099000D03*
%TD*%
%TO.C,C8*%
X102237000Y70569000D03*
X102237000Y72119000D03*
%TD*%
%TO.C,C8*%
X102237000Y39589000D03*
X102237000Y41139000D03*
%TD*%
%TO.C,C8*%
X102237000Y8609000D03*
X102237000Y10159000D03*
%TD*%
%TO.C,C8*%
X76337000Y132529000D03*
X76337000Y134079000D03*
%TD*%
%TO.C,C8*%
X76337000Y101549000D03*
X76337000Y103099000D03*
%TD*%
%TO.C,C8*%
X76337000Y70569000D03*
X76337000Y72119000D03*
%TD*%
%TO.C,C8*%
X76337000Y39589000D03*
X76337000Y41139000D03*
%TD*%
%TO.C,C8*%
X76337000Y8609000D03*
X76337000Y10159000D03*
%TD*%
%TO.C,C8*%
X50437000Y132529000D03*
X50437000Y134079000D03*
%TD*%
%TO.C,C8*%
X50437000Y101549000D03*
X50437000Y103099000D03*
%TD*%
%TO.C,C8*%
X50437000Y70569000D03*
X50437000Y72119000D03*
%TD*%
%TO.C,C8*%
X50437000Y39589000D03*
X50437000Y41139000D03*
%TD*%
%TO.C,C8*%
X50437000Y8609000D03*
X50437000Y10159000D03*
%TD*%
%TO.C,C8*%
X24537000Y132529000D03*
X24537000Y134079000D03*
%TD*%
%TO.C,C8*%
X24537000Y101549000D03*
X24537000Y103099000D03*
%TD*%
%TO.C,C8*%
X24537000Y70569000D03*
X24537000Y72119000D03*
%TD*%
%TO.C,C8*%
X24537000Y39589000D03*
X24537000Y41139000D03*
%TD*%
%TO.C,L1*%
X83506000Y129459000D03*
X83506000Y131009000D03*
%TD*%
%TO.C,L1*%
X83506000Y98479000D03*
X83506000Y100029000D03*
%TD*%
%TO.C,L1*%
X83506000Y67499000D03*
X83506000Y69049000D03*
%TD*%
%TO.C,L1*%
X83506000Y36519000D03*
X83506000Y38069000D03*
%TD*%
%TO.C,L1*%
X83506000Y5539000D03*
X83506000Y7089000D03*
%TD*%
%TO.C,L1*%
X57606000Y129459000D03*
X57606000Y131009000D03*
%TD*%
%TO.C,L1*%
X57606000Y98479000D03*
X57606000Y100029000D03*
%TD*%
%TO.C,L1*%
X57606000Y67499000D03*
X57606000Y69049000D03*
%TD*%
%TO.C,L1*%
X57606000Y36519000D03*
X57606000Y38069000D03*
%TD*%
%TO.C,L1*%
X57606000Y5539000D03*
X57606000Y7089000D03*
%TD*%
%TO.C,L1*%
X31706000Y129459000D03*
X31706000Y131009000D03*
%TD*%
%TO.C,L1*%
X31706000Y98479000D03*
X31706000Y100029000D03*
%TD*%
%TO.C,L1*%
X31706000Y67499000D03*
X31706000Y69049000D03*
%TD*%
%TO.C,L1*%
X31706000Y36519000D03*
X31706000Y38069000D03*
%TD*%
%TO.C,L1*%
X31706000Y5539000D03*
X31706000Y7089000D03*
%TD*%
%TO.C,L1*%
X5806000Y129459000D03*
X5806000Y131009000D03*
%TD*%
%TO.C,L1*%
X5806000Y98479000D03*
X5806000Y100029000D03*
%TD*%
%TO.C,L1*%
X5806000Y67499000D03*
X5806000Y69049000D03*
%TD*%
%TO.C,L1*%
X5806000Y36519000D03*
X5806000Y38069000D03*
%TD*%
%TO.C,L1*%
X5806000Y5539000D03*
X5806000Y7089000D03*
%TD*%
%TO.C,C8*%
X24537000Y8609000D03*
X24537000Y10159000D03*
%TD*%
D10*
%TO.C,C7*%
X22988000Y11647000D03*
X24538000Y11647000D03*
%TD*%
D18*
%TO.C,C4*%
X21742000Y1304000D03*
X21742000Y3204000D03*
%TD*%
D19*
%TO.C,C9*%
X23022000Y8609000D03*
X23022000Y10159000D03*
%TD*%
D18*
%TO.C,C5*%
X19667000Y1304000D03*
X19667000Y3204000D03*
%TD*%
D17*
%TO.C,C6*%
X24444000Y4004000D03*
X24444000Y2454000D03*
%TD*%
D13*
%TO.C,J6*%
X14950000Y10582000D03*
X13850000Y10582000D03*
X12750000Y10582000D03*
X11650000Y10582000D03*
X10550000Y10582000D03*
X9450000Y10582000D03*
X8350000Y10582000D03*
X7250000Y10582000D03*
X6150000Y10582000D03*
D14*
X4950000Y11182000D03*
D15*
X4950000Y20682000D03*
X20450000Y20682000D03*
D16*
X19550000Y11082000D03*
%TD*%
D12*
%TO.C,R6*%
X7298000Y8719000D03*
X7298000Y7069000D03*
%TD*%
D11*
%TO.C,C1*%
X16050000Y2930000D03*
X14500000Y2930000D03*
%TD*%
%TO.C,C3*%
X11448000Y8627000D03*
X9898000Y8627000D03*
%TD*%
D10*
%TO.C,C2*%
X12937000Y8601000D03*
X14487000Y8601000D03*
%TD*%
M02*
